<svg version="1.1" id="Layer_1" xmlns="http://www.w3.org/2000/svg" xmlns:xlink="http://www.w3.org/1999/xlink" x="0px" y="0px"
	 width="100%" viewBox="0 0 500 500" enable-background="new 0 0 500 500" xml:space="preserve">
<path fill="#FFFFFF" opacity="1.000000" stroke="none" 
	d="
M328.000000,501.000000 
	C218.666687,501.000000 109.833382,501.000000 1.000058,501.000000 
	C1.000039,334.333405 1.000039,167.666794 1.000019,1.000148 
	C167.666565,1.000099 334.333130,1.000099 500.999756,1.000049 
	C500.999847,167.666519 500.999847,334.333038 500.999939,500.999786 
	C443.500000,501.000000 386.000000,501.000000 328.000000,501.000000 
M265.253021,481.923798 
	C273.842316,477.214203 279.452179,470.249084 282.221222,460.745148 
	C285.332306,450.066956 288.902069,439.521515 292.322418,428.934509 
	C309.657715,375.276001 342.503082,334.086823 391.951080,306.798004 
	C405.260681,299.452850 419.670471,294.060608 433.711151,288.091614 
	C449.581512,281.344666 459.715485,267.098267 459.501007,251.119675 
	C459.272675,234.107529 449.644073,220.362961 433.436249,213.865936 
	C425.115540,210.530533 416.668335,207.466965 408.522888,203.745178 
	C354.248749,178.946381 316.484222,138.625336 295.789368,82.620255 
	C290.384277,67.992859 286.262146,52.895458 281.045380,38.193253 
	C276.101440,24.260006 263.905243,16.340286 249.473846,16.833626 
	C235.965225,17.295420 224.437851,26.383953 220.134705,39.966999 
	C216.724594,50.731091 213.367966,61.512459 209.897659,72.257103 
	C192.353333,126.577400 159.254974,168.361893 108.966850,195.764511 
	C95.903152,202.883072 81.822189,208.179657 68.059998,213.959579 
	C52.655567,220.429245 42.328945,234.615051 42.394783,249.988876 
	C42.469799,267.505707 51.960972,281.563690 68.081810,287.982147 
	C72.554764,289.763062 77.071144,291.434753 81.547127,293.208252 
	C138.514267,315.780365 179.684219,354.753998 203.018295,411.630493 
	C209.744644,428.025940 214.546997,445.215332 220.126404,462.075470 
	C226.539551,481.454987 246.044952,490.323883 265.253021,481.923798 
z"/>
<path fill="#020202" opacity="1.000000" stroke="none" 
	d="
M264.890869,482.043121 
	C246.044952,490.323883 226.539551,481.454987 220.126404,462.075470 
	C214.546997,445.215332 209.744644,428.025940 203.018295,411.630493 
	C179.684219,354.753998 138.514267,315.780365 81.547127,293.208252 
	C77.071144,291.434753 72.554764,289.763062 68.081810,287.982147 
	C51.960972,281.563690 42.469799,267.505707 42.394783,249.988876 
	C42.328945,234.615051 52.655567,220.429245 68.059998,213.959579 
	C81.822189,208.179657 95.903152,202.883072 108.966850,195.764511 
	C159.254974,168.361893 192.353333,126.577400 209.897659,72.257103 
	C213.367966,61.512459 216.724594,50.731091 220.134705,39.966999 
	C224.437851,26.383953 235.965225,17.295420 249.473846,16.833626 
	C263.905243,16.340286 276.101440,24.260006 281.045380,38.193253 
	C286.262146,52.895458 290.384277,67.992859 295.789368,82.620255 
	C316.484222,138.625336 354.248749,178.946381 408.522888,203.745178 
	C416.668335,207.466965 425.115540,210.530533 433.436249,213.865936 
	C449.644073,220.362961 459.272675,234.107529 459.501007,251.119675 
	C459.715485,267.098267 449.581512,281.344666 433.711151,288.091614 
	C419.670471,294.060608 405.260681,299.452850 391.951080,306.798004 
	C342.503082,334.086823 309.657715,375.276001 292.322418,428.934509 
	C288.902069,439.521515 285.332306,450.066956 282.221222,460.745148 
	C279.452179,470.249084 273.842316,477.214203 264.890869,482.043121 
M415.771332,252.097366 
	C415.775818,251.367615 416.013611,250.102386 415.750122,249.987579 
	C411.033722,247.932266 406.250427,246.031296 401.493500,244.068115 
	C336.372070,217.192657 289.780396,171.484482 262.206482,106.613892 
	C258.035797,96.801933 254.830276,86.579735 250.849152,75.643005 
	C224.614212,162.429825 168.775757,220.144531 83.067780,251.011551 
	C168.907028,281.848663 224.591537,339.710815 250.680664,425.590729 
	C251.292084,425.299408 251.509125,425.265961 251.541107,425.170532 
	C252.383591,422.656036 253.228973,420.142120 254.030258,417.614319 
	C271.130432,363.667786 302.570557,320.090515 348.379822,286.834351 
	C368.866547,271.961609 391.602966,261.520935 415.771332,252.097366 
z"/>
<path fill="#FEFEFE" opacity="1.000000" stroke="none" 
	d="
M415.404724,252.246170 
	C391.602966,261.520935 368.866547,271.961609 348.379822,286.834351 
	C302.570557,320.090515 271.130432,363.667786 254.030258,417.614319 
	C253.228973,420.142120 252.383591,422.656036 251.541107,425.170532 
	C251.509125,425.265961 251.292084,425.299408 250.680664,425.590729 
	C224.591537,339.710815 168.907028,281.848663 83.067780,251.011551 
	C168.775757,220.144531 224.614212,162.429825 250.849152,75.643005 
	C254.830276,86.579735 258.035797,96.801933 262.206482,106.613892 
	C289.780396,171.484482 336.372070,217.192657 401.493500,244.068115 
	C406.250427,246.031296 411.033722,247.932266 415.750122,249.987579 
	C416.013611,250.102386 415.775818,251.367615 415.404724,252.246170 
z"/>
</svg>